<svg width="40" height="40" viewBox="0 0 40 40" fill="none" xmlns="http://www.w3.org/2000/svg">
<rect width="40" height="40" rx="8" fill="white"/>
<g clip-path="url(#clip0_5_5423)">
<path d="M8.62542 8.76891C6.58225 10.8912 7.00042 13.1456 7.00042 19.9944C7.00042 25.6819 6.00809 31.3835 11.2016 32.7257C12.8233 33.1428 27.1927 33.1428 28.8123 32.7236C30.9746 32.1657 32.7339 30.4117 32.9744 27.3535C33.008 26.9267 33.008 13.0697 32.9733 12.6342C32.7177 9.37666 30.7124 7.49924 28.0702 7.11899C27.4646 7.03124 27.3433 7.00524 24.2363 6.99983C13.2155 7.00524 10.7997 6.51449 8.62542 8.76891Z" fill="#FB3F6C"/>
<path d="M19.9976 10.4006C16.064 10.4006 12.3287 10.0507 10.9019 13.7124C10.3126 15.2247 10.3982 17.1888 10.3982 20.0011C10.3982 22.469 10.3191 24.7884 10.9019 26.2888C12.3254 29.9526 16.0911 29.6016 19.9954 29.6016C23.7622 29.6016 27.6459 29.9938 29.09 26.2888C29.6804 24.7613 29.5938 22.8265 29.5938 20.0011C29.5938 16.2506 29.8007 13.8294 27.9818 12.0115C26.1401 10.1699 23.6495 10.4006 19.9933 10.4006H19.9976ZM19.1374 12.1307C27.3426 12.1177 28.3869 11.2055 27.8106 23.8773C27.6059 28.359 24.1934 27.8672 19.9987 27.8672C12.3504 27.8672 12.1304 27.6484 12.1304 19.9968C12.1304 12.2564 12.7371 12.135 19.1374 12.1285V12.1307ZM25.1218 13.7243C24.4859 13.7243 23.9702 14.24 23.9702 14.8759C23.9702 15.5118 24.4859 16.0275 25.1218 16.0275C25.7577 16.0275 26.2734 15.5118 26.2734 14.8759C26.2734 14.24 25.7577 13.7243 25.1218 13.7243ZM19.9976 15.0709C17.2752 15.0709 15.0684 17.2787 15.0684 20.0011C15.0684 22.7235 17.2752 24.9303 19.9976 24.9303C22.72 24.9303 24.9257 22.7235 24.9257 20.0011C24.9257 17.2787 22.72 15.0709 19.9976 15.0709ZM19.9976 16.801C24.228 16.801 24.2334 23.2013 19.9976 23.2013C15.7683 23.2013 15.7618 16.801 19.9976 16.801Z" fill="white"/>
</g>
<defs>
<clipPath id="clip0_5_5423">
<rect width="26" height="26" fill="white" transform="translate(7 7)"/>
</clipPath>
</defs>
</svg>
